<svg xmlns="http://www.w3.org/2000/svg" width="478" height="86" viewBox="0 0 478 86"><path fill="#FFF" d="M27.016 8.488h-.09c-4.41 0-8.782.517-13.191.517-4.32 0-9.101-.204-13.101-.563v2.34l4 .27V65.41l-4 .36v2.34c5-.36 8.68-.541 13.09-.541 4.32 0 8.91.181 12.91.541v-2.34l-3-.271V49.488h4.282c16.739 0 23.399-8.936 23.399-20.005-.001-11.879-7.02-20.995-24.299-20.995zm.9 39h-4.282V11.141l3.491-.36c5.58 0 6.875 3.549 7.055 18.848-.09 14.67-1.405 17.859-6.264 17.859zm77.717 18.011l3 .271v2.34c-8-.721-16-.721-24 0v-2.34c1-.091 2.288-.271 3.548-.271l-.412-32.579c0-2.79-1.255-4.95-4.585-4.95-3.69 0-6.551 2.34-7.551 3.87v33.659l3 .271v2.34c-8-.721-16-.721-24 0v-2.34c1-.091 2-.271 3-.271V11.051c-1 0-2-.09-3-.27v-2.34c6 .63 12.522.047 19.001-5.953h1.999V30.04c3-3.78 8.295-8.55 16.305-8.55 8.64 0 13.695 5.49 13.695 15.839v28.17zm9.221-56.158c0-5.04 4.05-8.91 9.18-8.91 5.04 0 9.18 3.87 9.18 8.91 0 5.13-4.14 9.089-9.18 9.089-5.13.001-9.18-3.959-9.18-9.089zm18.779 56.158l3 .271v2.34c-8-.721-16-.721-24 0v-2.34c1-.091 2-.271 3-.271V26.081c-1 0-2-.09-3-.27v-2.34c6 .27 12.48.018 18.96-1.982h2.04v44.01zm28 0l4 .271v2.34c-9-.721-17-.721-25 0v-2.34c1-.091 2-.271 4-.271V11.051c-2 0-3-.09-4-.27v-2.34c6 .63 12.83.047 19.309-5.953h1.691v63.011zm31.159-44.368c-14.579 0-23.849 9.359-23.849 23.939 0 14.489 9.27 23.579 23.849 23.579 14.489 0 23.669-9.089 23.669-23.579 0-14.58-9.18-23.939-23.669-23.939zm0 45.538c-4.68 0-6.03-3.87-6.03-21.599 0-18.179 1.35-22.049 6.03-22.049s5.85 3.87 5.85 22.049c0 17.729-1.17 21.599-5.85 21.599zm64.978-12.566c0 9.09-5.939 14.973-19.079 14.973-7.109 0-10.979-2.308-13.409-3.118l-.18 2.529h-2.52c.27-3 .54-5.665.54-8.365 0-2.88-.27-5.635-.54-8.635h2.52s.54 2.865.54 4.485c0 3.42 3.96 11.037 12.059 11.037 3.6 0 5.76-2.647 5.76-5.707 0-10.709-22.049-9.874-22.049-25.173 0-9.18 5.669-15.018 19.169-15.018 5.76 0 9.899.775 12.329 1.585l.09-1.209h2.61l.022 2.432v.18c0 2.07-.506 3.999-.506 6.069 0 2.79.123 5.319.483 8.319H253c-.18-1-.27-1.929-.359-2.919-.091-.09-.091-.327-.091-.507 0-2.88-2.34-12.095-11.159-12.095-5.22 0-6.479 2.817-6.479 5.697 0 10.71 22.858 8.611 22.858 25.44zm28.351-32.972c-14.58 0-23.85 9.359-23.85 23.939 0 14.489 9.27 23.579 23.85 23.579 14.489 0 23.669-9.089 23.669-23.579 0-14.58-9.18-23.939-23.669-23.939zm0 45.538c-4.681 0-6.03-3.87-6.03-21.599 0-18.179 1.35-22.049 6.03-22.049s5.85 3.87 5.85 22.049c-.001 17.729-1.171 21.599-5.85 21.599zm59.402-45.538c-7.29 0-11.89 6.03-11.89 6.03v-5.672h-1.883c-6.48 2-13.117 2.252-19.117 1.982v2.34c1 .18 2 .27 3 .27v56.877c-1 0-2 .181-3 .271v2.34c8-.72 16-.72 24 0v-2.34l-3-.271V62.619s4.6 6.029 11.89 6.029c10.89 0 17.11-9.899 17.11-23.668v-.18c0-13.77-6.22-23.669-17.11-23.669zm-6.442 42.478c-4.949 0-5.448-5.76-5.448-5.76V31.93s.499-5.76 5.448-5.76c4.95 0 6.12 6.39 6.12 18.719s-1.17 18.72-6.12 18.72zm77.552 1.89l4 .271v2.34c-8-.721-17-.721-25 0v-2.34c1-.091 2.469-.271 3.73-.271l-.231-32.579c0-2.79-1.376-4.95-4.706-4.95-3.689 0-6.792 2.34-7.792 3.87v33.659l4 .271v2.34c-8-.721-17-.721-25 0v-2.34c1-.091 3-.271 4-.271V11.051c-1 0-3-.09-4-.27v-2.34c7 .63 13.006.047 19.486-5.953h1.514V30.04c3-3.78 8.295-8.55 16.305-8.55 8.64 0 13.695 5.49 13.695 15.839v28.17zm47-40.499c-1 .27-1.908.36-3.167.45l-8.749 26.729-5.13 15.749c-4.05 11.249-8.279 13.95-14.849 13.95-3.69 0-6.75-2.791-6.75-6.391 0-3.42 2.609-6.209 6.3-6.209 3.06 0 5.579 1.979 6.21 4.949 0 0 .27.899 1.8.899 2.159 0 3.96-2.109 3.96-5.618 0-1.439-.271-2.02-.271-2.02h-3.6L422.581 24.96l-2.947-.05v-2.25c8 .72 17 .72 25 0V25c-1 .09-2.584.27-3.934.36l9.655 23.309 7.636-23.219c-1.26-.09-2.357-.18-3.357-.45v-2.34c2 .54 7 .54 9 0V25zm13.734 35.639c0 4.5-3.689 8.009-8.189 8.009s-8.1-3.51-8.1-8.009c0-4.5 3.6-7.92 8.1-7.92s8.189 3.42 8.189 7.92z"/></svg>